<svg xmlns="http://www.w3.org/2000/svg" height="72" viewBox="0 0 82 72" width="82"><path d="m1006.84 4642h-57.667a12.262 12.262 0 0 0 -12.173 12.32v39.05a12.262 12.262 0 0 0 12.171 12.32h57.667a12.262 12.262 0 0 0 12.17-12.32v-39.05a12.262 12.262 0 0 0 -12.168-12.32zm-57.667 2.66h57.667a9.616 9.616 0 0 1 9.54 9.66v37.05h-10.66a3.6 3.6 0 0 0 .13-.93v-31.74a3.572 3.572 0 0 0 -3.55-3.59h-7.287a3.574 3.574 0 0 0 -3.551 3.59v31.74a3.6 3.6 0 0 0 .136.93h-7.539a94.977 94.977 0 0 0 -1.651-14.96 8.54 8.54 0 0 0 4.395-6.12 10.1 10.1 0 0 0 .115-1.93 7.143 7.143 0 0 0 -.15-1.27c-.516-3.25-2.224-8.16-7.432-13.08l-.916-.86-.9.88c-.248.25-6.087 6.05-7.318 12.67a8.707 8.707 0 0 0 -.265 2.1 1.764 1.764 0 0 0 .01.2c-.006.07-.01.14-.01.21a4.765 4.765 0 0 0 .163 1.25 8.631 8.631 0 0 0 3.435 5.37c-.606 3.14-1.26 10.99-1.606 15.54h-7.687v-22.2c0-.03-.008-.07-.01-.1s.01-.07.01-.11a1.329 1.329 0 0 0 -.381-.93l-5.385-12.14a1.312 1.312 0 0 0 -1.19-.78h-.011a1.305 1.305 0 0 0 -1.191.76l-5.8 12.53a.035.035 0 0 0 -.006.02 1.093 1.093 0 0 0 -.068.2c-.006.02-.015.04-.02.06a1.4 1.4 0 0 0 -.03.28v22.41h-10.526v-37.05a9.615 9.615 0 0 1 9.539-9.66zm44.921 45.78v-31.74a.928.928 0 0 1 .919-.93h7.287a.926.926 0 0 1 .92.93v2.51h-4a1.335 1.335 0 0 0 0 2.67h4v5.1h-4a1.33 1.33 0 0 0 0 2.66h4v5.1h-4a1.33 1.33 0 0 0 0 2.66h4v5.99h-4a1.335 1.335 0 0 0 0 2.67h4v2.38a.926.926 0 0 1 -.92.93h-7.287a.928.928 0 0 1 -.919-.93zm-21.524-21.64a6.323 6.323 0 0 1 .2-1.53c.822-4.41 4.109-8.57 5.7-10.38a19.887 19.887 0 0 1 5.7 10.69 4.676 4.676 0 0 1 .106.84 7.867 7.867 0 0 1 -.073 1.4 5.86 5.86 0 0 1 -5.766 4.92h-.029a5.433 5.433 0 0 1 -.7-.06 7.086 7.086 0 0 1 -1.839-.56 5.9 5.9 0 0 1 -3.2-4.21l-.028-.12a2.054 2.054 0 0 1 -.078-.56c0-.06.009-.12.01-.24zm5.326 8.58a2.008 2.008 0 0 0 .245.01 2.942 2.942 0 0 0 .3.02c.042 0 .084-.01.126-.01a8.479 8.479 0 0 0 1.332-.09c.326 1.76.879 5.08 1.228 8.91h-6.127c.343-3.89.7-7.36.983-9.19a8.152 8.152 0 0 0 1.917.35zm-3.127 11.5h6.556q.072 1.23.1 2.49h-6.856q.097-1.245.2-2.49zm-16.176 2.49v-21.07h3.018v21.07zm-5.8 0v-21.07h3.167v21.07zm.754-23.74 3.7-8 3.55 8h-7.254zm53.293 35.39h-57.667a9.589 9.589 0 0 1 -9.506-8.99h76.673a9.582 9.582 0 0 1 -9.5 8.99zm-18.3 8.31h-21.073a1.335 1.335 0 0 0 0 2.67h21.078a1.335 1.335 0 0 0 0-2.67z" fill="#fc0" fill-rule="evenodd" transform="translate(-937 -4642)"/></svg>
