<svg height="10" viewBox="0 0 155 10" width="155" xmlns="http://www.w3.org/2000/svg"><path d="m153.542 61.74-1.742 1.984a3.349 3.349 0 0 0 -2.424-1.3 2.524 2.524 0 0 0 0 5.044 3.74 3.74 0 0 0 2.424-1.132l1.742 1.788a6.262 6.262 0 0 1 -4.311 1.886 5.073 5.073 0 0 1 -5.371-5.044c0-2.85 2.322-4.96 5.472-4.96a6.1 6.1 0 0 1 4.21 1.734zm6.006 5.505h-1.6v2.64h-3.019v-9.793h4.747c2.729 0 4.3 1.257 4.3 3.479a3.311 3.311 0 0 1 -1.713 3.115l2.062 3.2h-3.425zm.131-2.235a1.344 1.344 0 1 0 0-2.683h-1.728v2.683zm6.035 4.876v-9.794h3.019v9.793h-3.019zm10.11-6.446-2.594 6.446h-3.106l4.34-9.793h3.106l4.195 9.793h-3.222l-.595-1.565zm10.361-1.029v7.475h-3.034v-7.475h-2.946v-2.319h8.941v2.319zm4.352 7.475v-9.794h3.019v9.793h-3.019zm8.274 0-3.89-9.793h3.222l2.322 6.776 2.323-6.776h3.091l-3.933 9.793zm10.37-6.446-2.714 6.446h-3.107l4.34-9.793h3.106l4.194 9.793h-3.222zm-144.727-3.327c3.295 0 5.472 1.942 5.472 4.89s-2.221 4.9-5.574 4.9h-4.352v-9.79h4.457zm-1.437 7.516h1.525a2.329 2.329 0 0 0 2.307-2.6 2.413 2.413 0 0 0 -2.449-2.629h-1.383v5.225zm8.3 2.278v-9.794h3.019v9.794zm11.493 0-4.31-5.449v5.448h-2.773v-9.793h2.584l4.311 5.476v-5.476h2.757v9.794zm9.781-6.491-2.714 6.491h-3.107l4.34-9.794h3.106l4.195 9.794h-3.222zm15.95 6.491-.015-5.8-2.047 4.833h-1.974l-2.047-4.833v5.8h-2.658v-9.794h3.237l2.453 5.421 2.453-5.421h3.237v9.794h-2.641zm4.031 0v-9.794h3.02v9.794zm10.39-7.475v7.475h-3.033v-7.475h-2.947v-2.319h8.942v2.319zm7.371-.083h5.3v-2.236h-8.318v2.236h3.019zm5.3 3.772v-2.262h-8.318v2.261h8.318zm-.62 1.55h-7.7v2.234h8.326v-2.234h-.628z" fill="#fefefe" fill-rule="evenodd" transform="translate(-60 -60)"/></svg>