<svg xmlns="http://www.w3.org/2000/svg" enable-background="new 0 0 89 84" viewBox="0 0 89 84"><g clip-rule="evenodd" fill="#fc0" fill-rule="evenodd"><path d="m27.7 52.1c-2.3 0-4.2 2-4.2 4.3s2 4.2 4.3 4.2 4.2-2 4.2-4.3-1.9-4.2-4.3-4.2z"/><path d="m44.7 11.8c-.9 0-1.7.7-1.7 1.7v53c0 .9.7 1.7 1.7 1.7.9 0 1.7-.8 1.7-1.7v-53c0-.9-.7-1.7-1.7-1.7z"/><path d="m76.5 0h-31.9c-6.9 0-12.5 5.6-12.5 12.5v16.5c-1.4-.2-2.9-.3-4.4-.3-15.3 0-27.7 12.4-27.7 27.7.1 15.2 12.5 27.6 27.8 27.6 4.2 0 8.3-1 12.1-2.8l.1-.1c1.4.6 2.9.9 4.6.9h31.9c6.9 0 12.5-5.6 12.5-12.5v-57c0-6.9-5.6-12.5-12.5-12.5zm-70.4 67.4c-6.1-11.9-1.4-26.5 10.5-32.6 4.8-2.4 10.2-3.2 15.5-2.2v36.9c0 3.8 1.7 7.1 4.3 9.4h.1.1l-.2.1c-.1 0-.1 0-.2.1-11.4 4.2-24.4-.6-30.1-11.7zm31.5 12.5 1.3.8c-.4-.3-.8-.6-1.3-.8zm47.9-10.4c0 5-4 9-9 9h-31.9c-4.9 0-9-4-9-9v-57c0-5 4-9 9-9h31.9c4.9 0 9 4 9 9z"/></g></svg>
