<svg xmlns="http://www.w3.org/2000/svg" width="21.41" height="18.281" viewBox="0 0 21.41 18.281">
  <defs>
    <style>
      .cls-1 {
        fill: #0f1015;
        fill-rule: evenodd;
      }
    </style>
  </defs>
  <path id="icon-orca.svg" class="cls-1" d="M1656.4,75.67a0.845,0.845,0,0,1-.41,1.1l-9.05,4.155a0.8,0.8,0,0,1-.34.075,0.835,0.835,0,0,1-.24-0.036l-10.69-3.325a0.834,0.834,0,0,1-.55-1.039,0.822,0.822,0,0,1,1.03-.55l10.39,3.233,8.77-4.025A0.817,0.817,0,0,1,1656.4,75.67Zm-9.86.288-10.39-3.232a0.826,0.826,0,0,0-1.03.55,0.835,0.835,0,0,0,.55,1.039l10.69,3.324a0.807,0.807,0,0,0,.58-0.038l9.05-4.156a0.845,0.845,0,0,0,.41-1.1,0.819,0.819,0,0,0-1.09-.412Zm-11.45-5.72a0.826,0.826,0,0,1,.5-0.808l6-2.557c1.18-.5,1.75-1.132,1.75-3.343a0.82,0.82,0,0,1,1.02-.807l10.64,2.65a0.83,0.83,0,0,1,.63.806v0.127c0,2.458,0,4.082-2.98,5.351-2,.849-5.66,2.6-5.7,2.616a0.805,0.805,0,0,1-.35.079,0.835,0.835,0,0,1-.24-0.036l-10.69-3.325A0.821,0.821,0,0,1,1635.09,70.237Zm3.22-.164,8.23,2.558c0.91-.434,3.75-1.775,5.47-2.506,1.82-.774,1.96-1.37,1.97-3.294l-9.04-2.252a4.125,4.125,0,0,1-2.71,3.824Z" transform="translate(-1635.09 -62.719)"/>
</svg>
