<svg xmlns="http://www.w3.org/2000/svg" enable-background="new 0 0 102 81" viewBox="0 0 102 81"><g fill="#fc0"><path d="m88.2 0h-65.5c-7.7 0-13.9 6.2-13.9 13.9v28.6 3h3 2.7c2 0 3.5 1.6 3.5 3.5v6.6 3 8.4 1.6.8 2.2 2.8c0 2-1.6 3.5-3.5 3.5h-8c-2 0-3.5-1.6-3.5-3.5v-25.4c0-2 1.6-3.5 3.5-3.5h2.3v-3h-2.3c-3.6-.1-6.5 2.9-6.5 6.5v25.5c0 3.6 2.9 6.5 6.5 6.5h8.1c3.6 0 6.5-2.9 6.5-6.5v-2.8h.6c.3 0 .6.1 1 .1h65.5c7.6 0 13.8-6.2 13.8-13.9v-44c0-7.7-6.2-13.9-13.8-13.9zm-73.6 42.4h-2.7v-13.3-15.2c0-6 4.8-10.8 10.8-10.9h65.5c6 0 10.8 4.9 10.8 10.9v41.7h-77-.9v-6.6c0-3.6-2.9-6.6-6.5-6.6zm73.6 26.2h-65.5c-.5 0-1 0-1.6-.1v-10h.9 77c-.4 5.7-5.1 10.1-10.8 10.1z"/><path d="m67.4 78h-24c-.8 0-1.5.7-1.5 1.5s.7 1.5 1.5 1.5h23.9c.8 0 1.5-.7 1.5-1.5s-.6-1.5-1.4-1.5z"/><path d="m10.4 73.1c.9 0 1.6-.7 1.6-1.6s-.7-1.6-1.6-1.6-1.6.7-1.6 1.6.7 1.6 1.6 1.6z"/></g></svg>
