<svg xmlns="http://www.w3.org/2000/svg" enable-background="new 0 0 84 84" viewBox="0 0 84 84"><path d="m72.8 14.4c-.8-1-1.7-1.9-2.6-2.7-4-3.8-8.8-6.8-14.1-8.7-2.8-1-5.7-1.8-8.7-2.2-1.8-.2-3.7-.4-5.6-.4-1.7 0-3.4.1-5 .3-3.2.4-6.3 1.1-9.2 2.2-5.2 1.9-10 4.8-14 8.6-.9.8-1.8 1.7-2.6 2.7-6.6 7.3-10.6 17-10.6 27.7 0 9.9 3.5 19 9.3 26.2.8 1 1.6 1.9 2.5 2.8 4.7 4.8 10.7 8.5 17.3 10.6 3 .9 6.1 1.5 9.3 1.7 1 .1 2 .1 3 .1 1.2 0 2.5-.1 3.7-.2 3-.3 6-.9 8.8-1.8 6.6-2.1 12.6-5.8 17.3-10.7.9-.9 1.7-1.9 2.5-2.8 5.7-7.1 9.1-16.1 9.1-25.9 0-10.6-3.9-20.2-10.4-27.5zm6.6 25.7h-11.4c-.3-6.6-2.1-12.8-5.1-18.2 2.5-1.4 4.9-3.1 7.1-4.9 5.5 6.2 9 14.2 9.4 23.1zm-35.5-32.4c5.5 3.1 10.2 7.4 13.8 12.6-4.2 1.9-8.9 3-13.8 3.2zm-3.8 15.8c-4.7-.2-9.3-1.3-13.4-3.1 3.4-5.1 8-9.4 13.4-12.5zm0 3.8v12.8h-20c.3-5.9 1.9-11.5 4.6-16.4 4.8 2.1 10 3.3 15.4 3.6zm0 16.6v9.6c-6 .3-11.7 1.7-16.8 4.2-1.8-4.3-2.9-9-3.1-13.8zm0 13.3v19.3c-6.4-3.6-11.7-9-15.2-15.4 4.7-2.2 9.8-3.6 15.2-3.9zm3.8 19.6v-19.6c5.6.3 10.8 1.7 15.5 4-3.6 6.6-9 12-15.5 15.6zm0-23.3v-9.6h20.4c-.2 5-1.3 9.7-3.2 14-5.3-2.6-11.1-4.1-17.2-4.4zm0-13.4v-12.8c5.6-.2 10.9-1.5 15.7-3.7 2.7 5 4.3 10.6 4.7 16.5zm23.5-25.9c-2 1.7-4.1 3.1-6.3 4.4-3.7-5.6-8.6-10.3-14.4-13.6.3-.1.7-.2 1-.3 7.5 1.1 14.3 4.6 19.7 9.5zm-30.9-9.7c.4.1.8.3 1.3.4-5.8 3.4-10.8 8.2-14.5 13.8-2.5-1.3-4.8-2.9-6.9-4.7 5.4-5 12.4-8.4 20.1-9.5zm-22.8 12.2c2.3 2 4.9 3.8 7.6 5.3-2.9 5.4-4.6 11.6-5 18h-12.1c.4-8.9 3.9-17 9.5-23.3zm-9.5 27.2h12.2c.2 5.5 1.5 10.8 3.6 15.6-2.7 1.6-5.3 3.6-7.6 5.8-4.8-6-7.8-13.4-8.2-21.4zm10.6 24.2c2.1-2 4.3-3.7 6.8-5.2 3.7 6.7 9.1 12.4 15.6 16.3-8.7-1-16.5-5.1-22.4-11.1zm32.6 11c6.4-3.9 11.6-9.4 15.3-16 2.2 1.4 4.3 3 6.2 4.8-5.6 5.9-13.1 9.9-21.5 11.2zm24-14.1c-2.1-2-4.5-3.8-7-5.3 2.2-4.9 3.5-10.2 3.7-15.9h11.3c-.4 8-3.3 15.3-8 21.2z" fill="#fc0"/></svg>
